<svg width="156" height="98" viewBox="0 0 156 98" fill="none" xmlns="http://www.w3.org/2000/svg">
<circle cx="92.5" cy="92.5" r="5.5" transform="rotate(-180 92.5 92.5)" fill="white" fill-opacity="0.4"/>
<circle cx="121.5" cy="92.5" r="5.5" transform="rotate(-180 121.5 92.5)" fill="white" fill-opacity="0.2"/>
<circle cx="150.5" cy="92.5" r="5.5" transform="rotate(-180 150.5 92.5)" fill="white" fill-opacity="0.1"/>
<circle cx="92.5" cy="34.5" r="5.5" transform="rotate(-180 92.5 34.5)" fill="white" fill-opacity="0.4"/>
<circle cx="121.5" cy="34.5" r="5.5" transform="rotate(-180 121.5 34.5)" fill="white" fill-opacity="0.2"/>
<circle cx="150.5" cy="34.5" r="5.5" transform="rotate(-180 150.5 34.5)" fill="white" fill-opacity="0.1"/>
<circle cx="92.5" cy="63.5" r="5.5" transform="rotate(-180 92.5 63.5)" fill="white" fill-opacity="0.4"/>
<circle cx="121.5" cy="63.5" r="5.5" transform="rotate(-180 121.5 63.5)" fill="white" fill-opacity="0.2"/>
<circle cx="150.5" cy="63.5" r="5.5" transform="rotate(-180 150.5 63.5)" fill="white" fill-opacity="0.1"/>
<circle cx="92.5" cy="5.5" r="5.5" transform="rotate(-180 92.5 5.5)" fill="white" fill-opacity="0.4"/>
<circle cx="121.5" cy="5.5" r="5.5" transform="rotate(-180 121.5 5.5)" fill="white" fill-opacity="0.2"/>
<circle cx="150.5" cy="5.5" r="5.5" transform="rotate(-180 150.5 5.5)" fill="white" fill-opacity="0.1"/>
<circle cx="63.5" cy="92.5" r="5.5" transform="rotate(-180 63.5 92.5)" fill="white" fill-opacity="0.6"/>
<circle cx="63.5" cy="34.5" r="5.5" transform="rotate(-180 63.5 34.5)" fill="white" fill-opacity="0.6"/>
<circle cx="63.5" cy="63.5" r="5.5" transform="rotate(-180 63.5 63.5)" fill="white" fill-opacity="0.6"/>
<circle cx="63.5" cy="5.5" r="5.5" transform="rotate(-180 63.5 5.5)" fill="white" fill-opacity="0.6"/>
<circle cx="34.5" cy="92.5" r="5.5" transform="rotate(-180 34.5 92.5)" fill="white" fill-opacity="0.8"/>
<circle cx="34.5" cy="34.5" r="5.5" transform="rotate(-180 34.5 34.5)" fill="white" fill-opacity="0.8"/>
<circle cx="34.5" cy="63.5" r="5.5" transform="rotate(-180 34.5 63.5)" fill="white" fill-opacity="0.8"/>
<circle cx="34.5" cy="5.5" r="5.5" transform="rotate(-180 34.5 5.5)" fill="white" fill-opacity="0.8"/>
<circle cx="5.5" cy="92.5" r="5.5" transform="rotate(-180 5.5 92.5)" fill="white" fill-opacity="0.85"/>
<circle cx="5.5" cy="34.5" r="5.5" transform="rotate(-180 5.5 34.5)" fill="white" fill-opacity="0.85"/>
<circle cx="5.5" cy="63.5" r="5.5" transform="rotate(-180 5.5 63.5)" fill="white" fill-opacity="0.85"/>
<circle cx="5.5" cy="5.5" r="5.5" transform="rotate(-180 5.5 5.5)" fill="white" fill-opacity="0.85"/>
</svg>
